<svg width="22" height="22" viewBox="0 0 22 22" fill="none" xmlns="http://www.w3.org/2000/svg">
<path d="M14.6666 19.25V17.4167C14.6666 16.4442 14.2803 15.5116 13.5927 14.8239C12.9051 14.1363 11.9724 13.75 11 13.75H5.49998C4.52752 13.75 3.59489 14.1363 2.90725 14.8239C2.21962 15.5116 1.83331 16.4442 1.83331 17.4167V19.25" stroke="#7C3AED" stroke-width="1.83333" stroke-linecap="round" stroke-linejoin="round"/>
<path d="M8.24998 10.0833C10.275 10.0833 11.9166 8.44171 11.9166 6.41667C11.9166 4.39162 10.275 2.75 8.24998 2.75C6.22494 2.75 4.58331 4.39162 4.58331 6.41667C4.58331 8.44171 6.22494 10.0833 8.24998 10.0833Z" stroke="#7C3AED" stroke-width="1.83333" stroke-linecap="round" stroke-linejoin="round"/>
<path d="M20.1667 19.25V17.4166C20.1661 16.6042 19.8957 15.815 19.3979 15.1729C18.9002 14.5308 18.2033 14.0722 17.4167 13.8691" stroke="#7C3AED" stroke-width="1.83333" stroke-linecap="round" stroke-linejoin="round"/>
<path d="M14.6667 2.86914C15.4554 3.07108 16.1545 3.52978 16.6537 4.17293C17.1529 4.81607 17.4239 5.60707 17.4239 6.42122C17.4239 7.23538 17.1529 8.02638 16.6537 8.66952C16.1545 9.31266 15.4554 9.77136 14.6667 9.97331" stroke="#7C3AED" stroke-width="1.83333" stroke-linecap="round" stroke-linejoin="round"/>
</svg>
