<svg width="22" height="22" viewBox="0 0 22 22" fill="none" xmlns="http://www.w3.org/2000/svg">
<path d="M10.5646 2.10382C10.6047 2.02265 10.6668 1.95434 10.7437 1.90657C10.8207 1.85881 10.9094 1.8335 11 1.8335C11.0905 1.8335 11.1793 1.85881 11.2562 1.90657C11.3332 1.95434 11.3952 2.02265 11.4354 2.10382L13.5529 6.3929C13.6924 6.6752 13.8983 6.91944 14.153 7.10465C14.4076 7.28986 14.7034 7.4105 15.015 7.45623L19.7505 8.14923C19.8402 8.16223 19.9245 8.20008 19.9938 8.2585C20.0632 8.31691 20.1148 8.39357 20.1428 8.47979C20.1709 8.56601 20.1742 8.65835 20.1525 8.74638C20.1308 8.83441 20.0849 8.9146 20.02 8.9779L16.5953 12.3127C16.3695 12.5328 16.2005 12.8045 16.1029 13.1044C16.0053 13.4043 15.9821 13.7234 16.0352 14.0342L16.8437 18.7459C16.8596 18.8356 16.8499 18.9279 16.8158 19.0124C16.7817 19.0968 16.7245 19.17 16.6508 19.2235C16.5771 19.277 16.4899 19.3087 16.399 19.3151C16.3082 19.3214 16.2174 19.302 16.137 19.2592L11.9038 17.0336C11.6249 16.8871 11.3146 16.8106 10.9995 16.8106C10.6845 16.8106 10.3742 16.8871 10.0952 17.0336L5.86298 19.2592C5.78262 19.3018 5.69193 19.3209 5.60123 19.3145C5.51053 19.308 5.42346 19.2762 5.34992 19.2228C5.27638 19.1693 5.21933 19.0962 5.18525 19.0119C5.15117 18.9276 5.14143 18.8355 5.15715 18.7459L5.96473 14.0351C6.01808 13.7242 5.99497 13.4048 5.89739 13.1048C5.79982 12.8047 5.63071 12.5329 5.40465 12.3127L1.97998 8.97882C1.91453 8.9156 1.86814 8.83526 1.84611 8.74697C1.82409 8.65867 1.8273 8.56596 1.85539 8.47941C1.88348 8.39285 1.93531 8.31592 2.00499 8.25738C2.07466 8.19885 2.15938 8.16106 2.24948 8.14832L6.98406 7.45623C7.29597 7.41086 7.59217 7.29037 7.84718 7.10514C8.1022 6.91991 8.30838 6.67548 8.44798 6.3929L10.5646 2.10382Z" stroke="#D97706" stroke-width="1.83333" stroke-linecap="round" stroke-linejoin="round"/>
</svg>
