<svg width="13" height="13" viewBox="0 0 13 13" fill="none" xmlns="http://www.w3.org/2000/svg">
<g clip-path="url(#clip0_1_5010)">
<path d="M10.8332 5.41671C10.8332 8.12125 7.83288 10.9379 6.82538 11.8078C6.73152 11.8784 6.61727 11.9166 6.49984 11.9166C6.38241 11.9166 6.26815 11.8784 6.1743 11.8078C5.1668 10.9379 2.1665 8.12125 2.1665 5.41671C2.1665 4.26744 2.62305 3.16524 3.43571 2.35258C4.24837 1.53992 5.35057 1.08337 6.49984 1.08337C7.64911 1.08337 8.75131 1.53992 9.56397 2.35258C10.3766 3.16524 10.8332 4.26744 10.8332 5.41671Z" stroke="#94A3B8" stroke-width="1.08333" stroke-linecap="round" stroke-linejoin="round"/>
<path d="M6.5 7.04163C7.39746 7.04163 8.125 6.31409 8.125 5.41663C8.125 4.51916 7.39746 3.79163 6.5 3.79163C5.60254 3.79163 4.875 4.51916 4.875 5.41663C4.875 6.31409 5.60254 7.04163 6.5 7.04163Z" stroke="#94A3B8" stroke-width="1.08333" stroke-linecap="round" stroke-linejoin="round"/>
</g>
<defs>
<clipPath id="clip0_1_5010">
<rect width="13" height="13" fill="white"/>
</clipPath>
</defs>
</svg>
