<svg width="17" height="17" viewBox="0 0 17 17" fill="none" xmlns="http://www.w3.org/2000/svg">
<path d="M10.625 14.875V9.20833C10.625 9.02047 10.5504 8.8403 10.4175 8.70747C10.2847 8.57463 10.1045 8.5 9.91667 8.5H7.08333C6.89547 8.5 6.7153 8.57463 6.58247 8.70747C6.44963 8.8403 6.375 9.02047 6.375 9.20833V14.875" stroke="white" stroke-width="1.41667" stroke-linecap="round" stroke-linejoin="round"/>
<path d="M2.125 7.08333C2.12495 6.87725 2.16986 6.67365 2.2566 6.48671C2.34334 6.29978 2.46982 6.13402 2.62721 6.001L7.58554 1.75171C7.84124 1.5356 8.16521 1.41703 8.5 1.41703C8.83479 1.41703 9.15876 1.5356 9.41446 1.75171L14.3728 6.001C14.5302 6.13402 14.6567 6.29978 14.7434 6.48671C14.8301 6.67365 14.875 6.87725 14.875 7.08333V13.4583C14.875 13.8341 14.7257 14.1944 14.4601 14.4601C14.1944 14.7257 13.8341 14.875 13.4583 14.875H3.54167C3.16594 14.875 2.80561 14.7257 2.53993 14.4601C2.27426 14.1944 2.125 13.8341 2.125 13.4583V7.08333Z" stroke="white" stroke-width="1.41667" stroke-linecap="round" stroke-linejoin="round"/>
</svg>
