<svg width="15" height="15" viewBox="0 0 15 15" fill="none" xmlns="http://www.w3.org/2000/svg">
<g clip-path="url(#clip0_1_5370)">
<path d="M10.625 1.25H4.375C2.64911 1.25 1.25 2.64911 1.25 4.375V10.625C1.25 12.3509 2.64911 13.75 4.375 13.75H10.625C12.3509 13.75 13.75 12.3509 13.75 10.625V4.375C13.75 2.64911 12.3509 1.25 10.625 1.25Z" stroke="#94A3B8" stroke-width="1.25" stroke-linecap="round" stroke-linejoin="round"/>
<path d="M9.99982 7.10619C10.0769 7.62635 9.9881 8.15758 9.74592 8.62433C9.50373 9.09108 9.12053 9.46958 8.65083 9.70599C8.18113 9.9424 7.64885 10.0247 7.12968 9.94115C6.61052 9.85761 6.13092 9.6125 5.75909 9.24067C5.38727 8.86884 5.14215 8.38924 5.05861 7.87008C4.97507 7.35091 5.05736 6.81863 5.29377 6.34893C5.53018 5.87923 5.90868 5.49603 6.37543 5.25385C6.84218 5.01166 7.37341 4.92281 7.89357 4.99994C8.42414 5.07862 8.91535 5.32586 9.29463 5.70514C9.6739 6.08441 9.92114 6.57562 9.99982 7.10619Z" stroke="#94A3B8" stroke-width="1.25" stroke-linecap="round" stroke-linejoin="round"/>
<path d="M10.9375 4.0625H10.9438" stroke="#94A3B8" stroke-width="1.25" stroke-linecap="round" stroke-linejoin="round"/>
</g>
<defs>
<clipPath id="clip0_1_5370">
<rect width="15" height="15" fill="white"/>
</clipPath>
</defs>
</svg>
