<svg width="14" height="14" viewBox="0 0 14 14" fill="none" xmlns="http://www.w3.org/2000/svg">
<g clip-path="url(#clip0_1_5257)">
<path d="M9.02859 7.51917L9.91234 12.4927C9.92224 12.5512 9.91402 12.6114 9.88879 12.6652C9.86356 12.719 9.82251 12.7637 9.77114 12.7935C9.71976 12.8234 9.66052 12.8368 9.60131 12.832C9.54211 12.8272 9.48578 12.8045 9.43984 12.7668L7.35151 11.1994C7.2507 11.1241 7.12823 11.0834 7.00238 11.0834C6.87654 11.0834 6.75407 11.1241 6.65326 11.1994L4.56143 12.7662C4.51553 12.8038 4.45926 12.8265 4.40013 12.8313C4.341 12.8361 4.28182 12.8227 4.23048 12.793C4.17914 12.7633 4.13809 12.7186 4.1128 12.6649C4.0875 12.6113 4.07918 12.5512 4.08893 12.4927L4.97209 7.51917" stroke="#FBBF24" stroke-width="1.16667" stroke-linecap="round" stroke-linejoin="round"/>
<path d="M7 8.16667C8.933 8.16667 10.5 6.59967 10.5 4.66667C10.5 2.73368 8.933 1.16667 7 1.16667C5.067 1.16667 3.5 2.73368 3.5 4.66667C3.5 6.59967 5.067 8.16667 7 8.16667Z" stroke="#FBBF24" stroke-width="1.16667" stroke-linecap="round" stroke-linejoin="round"/>
</g>
<defs>
<clipPath id="clip0_1_5257">
<rect width="14" height="14" fill="white"/>
</clipPath>
</defs>
</svg>
