<svg width="15" height="15" viewBox="0 0 15 15" fill="none" xmlns="http://www.w3.org/2000/svg">
<g clip-path="url(#clip0_1_5375)">
<path d="M1.56232 10.625C1.12571 8.56454 1.12571 6.43546 1.56232 4.375C1.61969 4.16576 1.73053 3.97505 1.88395 3.82163C2.03737 3.66821 2.22808 3.55737 2.43732 3.5C5.78948 2.94466 9.21017 2.94466 12.5623 3.5C12.7716 3.55737 12.9623 3.66821 13.1157 3.82163C13.2691 3.97505 13.38 4.16576 13.4373 4.375C13.8739 6.43546 13.8739 8.56454 13.4373 10.625C13.38 10.8342 13.2691 11.025 13.1157 11.1784C12.9623 11.3318 12.7716 11.4426 12.5623 11.5C9.21018 12.0555 5.78947 12.0555 2.43732 11.5C2.22808 11.4426 2.03737 11.3318 1.88395 11.1784C1.73053 11.025 1.61969 10.8342 1.56232 10.625Z" stroke="#94A3B8" stroke-width="1.25" stroke-linecap="round" stroke-linejoin="round"/>
<path d="M6.25 9.375L9.375 7.5L6.25 5.625V9.375Z" stroke="#94A3B8" stroke-width="1.25" stroke-linecap="round" stroke-linejoin="round"/>
</g>
<defs>
<clipPath id="clip0_1_5375">
<rect width="15" height="15" fill="white"/>
</clipPath>
</defs>
</svg>
